<svg xmlns="http://www.w3.org/2000/svg" viewBox="0 0 24 24">
  <path d="M0.875 7C0.394531 7 0 7.394531 0 7.875L0 20.125C0 20.605469 0.394531 21 0.875 21L3 21C3 22.65625 4.34375 24 6 24C7.65625 24 9 22.65625 9 21L12.125 21C12.605469 21 13 20.605469 13 20.125L13 7.875C13 7.394531 12.605469 7 12.125 7 Z M 14.65625 9C14.296875 9 14 9.292969 14 9.65625L14 20.34375C14 20.613281 14.171875 20.839844 14.40625 20.9375C14.484375 20.96875 14.566406 21 14.65625 21L16 21C16 22.65625 17.34375 24 19 24C20.65625 24 22 22.65625 22 21L23.34375 21C23.433594 21 23.515625 20.972656 23.59375 20.9375C23.75 20.871094 23.871094 20.75 23.9375 20.59375C23.972656 20.515625 24 20.433594 24 20.34375L24 15.1875C24 15.058594 23.945313 14.953125 23.875 14.84375L20.1875 9.28125C20.066406 9.101563 19.875 9 19.65625 9 Z M 17 11L19.53125 11L22.1875 15L17 15 Z M 6 19.5C6.828125 19.5 7.5 20.171875 7.5 21C7.5 21.828125 6.828125 22.5 6 22.5C5.171875 22.5 4.5 21.828125 4.5 21C4.5 20.171875 5.171875 19.5 6 19.5 Z M 19 19.5C19.828125 19.5 20.5 20.171875 20.5 21C20.5 21.828125 19.828125 22.5 19 22.5C18.171875 22.5 17.5 21.828125 17.5 21C17.5 20.171875 18.171875 19.5 19 19.5Z" fill="#FFFFFF" />
</svg>