<svg xmlns="http://www.w3.org/2000/svg" viewBox="0 0 24 24">
  <path d="M1 0L1 2L23 2L23 0L1 0 z M 1 3C1 3 0 9.326 0 9.5C0 10.328 0.672 11 1.5 11C2.328 11 3 10.328 3 9.5L3 5L5.25 5L5.25 9.5C5.25 10.328 5.922 11 6.75 11C7.578 11 8.25 10.328 8.25 9.5L8.25 5L10.5 5L10.5 9.5C10.5 10.328 11.172 11 12 11C12.828 11 13.5 10.328 13.5 9.5L13.5 5L15.75 5L15.75 9.5C15.75 10.328 16.422 11 17.25 11C18.078 11 18.75 10.328 18.75 9.5L18.759766 5L21 5L21 9.5C21 10.328 21.672 11 22.5 11C23.328 11 24 10.328 24 9.5C24 9.326 23 3 23 3L1 3 z M 4.125 10.501953C3.613 11.424953 2.628 12.050781 1.5 12.050781C1.329 12.050781 1.163 12.028 1 12L1 24L4 24L4 14L11 14L11 24L13 24L13 14L20 14L20 24L23 24L23 12.001953C22.837 12.029953 22.671 12.050781 22.5 12.050781C21.372 12.050781 20.388 11.425906 19.875 10.503906C19.363 11.425906 18.378 12.050781 17.25 12.050781C16.122 12.050781 15.137 11.424953 14.625 10.501953C14.113 11.424953 13.128 12.050781 12 12.050781C10.872 12.050781 9.887 11.424953 9.375 10.501953C8.863 11.424953 7.878 12.050781 6.75 12.050781C5.622 12.050781 4.637 11.424953 4.125 10.501953 z M 9 18 A 1 1 0 0 0 8 19 A 1 1 0 0 0 9 20 A 1 1 0 0 0 10 19 A 1 1 0 0 0 9 18 z M 15 18 A 1 1 0 0 0 14 19 A 1 1 0 0 0 15 20 A 1 1 0 0 0 16 19 A 1 1 0 0 0 15 18 z" fill="#FFFFFF" />
</svg>