<svg xmlns="http://www.w3.org/2000/svg" viewBox="0 0 24 24">
  <path d="M8 2.398438C8.101563 2.398438 8.101563 2.398438 8.199219 2.5C8.300781 2.601563 8.601563 2.898438 8.601563 3.101563C8.601563 3.300781 8.601563 3.800781 8.699219 4.199219C8.898438 4.699219 9.101563 6 9.398438 6.699219C9.699219 7.398438 9.800781 7.800781 9.5 8.199219C9.199219 8.699219 7.300781 10.601563 7.300781 10.601563C7.300781 10.601563 7.800781 11.601563 8.398438 12.199219C8.898438 12.898438 9.699219 13.898438 10.699219 14.699219C11.699219 15.601563 12.800781 16.398438 13.898438 16.898438C15 15.800781 15.898438 14.898438 16.199219 14.699219C16.5 14.5 16.5 14.398438 17 14.601563C17.5 14.800781 18.199219 15.101563 19 15.199219C19.699219 15.300781 20.5 15.398438 21 15.5C21.5 15.601563 21.5 15.601563 21.601563 15.800781C21.800781 16 21.898438 16.300781 21.898438 16.398438C21.898438 16.5 21.898438 16.800781 21.898438 17.800781C21.898438 18.800781 21.898438 20.199219 21.898438 20.5C21.898438 20.800781 21.898438 20.800781 21.800781 21C21.699219 21.199219 21.601563 21.699219 21.601563 21.699219C21.601563 21.800781 21.101563 22 20.800781 22C20.5 22 19.398438 22 18.699219 21.898438C18 21.800781 16.101563 21.398438 15.398438 21.101563C14.699219 20.898438 12.398438 20.101563 9.601563 18C7 16 5.101563 13.300781 4 11.101563C2.898438 8.898438 2.300781 6.5 2.199219 5.300781C2 4.101563 2 3.601563 2 3.300781C2.101563 3 2.398438 2.699219 2.601563 2.601563C2.800781 2.5 3.101563 2.398438 3.398438 2.398438C3.699219 2.398438 4.5 2.398438 5.601563 2.398438C6.699219 2.398438 8 2.398438 8 2.398438Z" fill="#FFFFFF" />
</svg>