<svg id="Layer_1" data-name="Layer 1" xmlns="http://www.w3.org/2000/svg" viewBox="0 0 800 237.06"><defs><style>.cls-1{fill:#393735;}.cls-2{fill:#c69c6d;}.cls-3{fill:#fff;}</style></defs><rect class="cls-1" y="0.15" width="800" height="236.91"/><path class="cls-2" d="M137.49,182.15l-11.37,28L114,182.81l-.29-.66h-7.58L122.39,218a4.88,4.88,0,0,1-1.33,2.26,4.27,4.27,0,0,1-2.57.6h-3.91v6.38h5.57c4,0,7-2.49,9-7.37l15.61-37.69Z"/><polygon class="cls-2" points="184.93 182.15 176.55 182.15 165 199.57 153.79 182.64 153.47 182.15 145.06 182.15 159.89 203.9 143.79 227.21 152.32 227.21 165 208.4 177.37 226.72 177.69 227.21 186.21 227.21 170.12 203.9 184.93 182.15"/><path class="cls-2" d="M218.44,186.18a11.35,11.35,0,0,0-5.89-3.55,37.38,37.38,0,0,0-9.32-.95,38,38,0,0,0-9.39.95,11.37,11.37,0,0,0-5.93,3.57,15.28,15.28,0,0,0-3,7,62.43,62.43,0,0,0-.84,11.5,63.34,63.34,0,0,0,.83,11.44,15,15,0,0,0,3,7,11.48,11.48,0,0,0,5.91,3.57,37.21,37.21,0,0,0,9.3.95,37.88,37.88,0,0,0,9.37-.95,11.41,11.41,0,0,0,5.93-3.56,15.39,15.39,0,0,0,3-7,63.5,63.5,0,0,0,.83-11.44,65.23,65.23,0,0,0-.82-11.48A15.28,15.28,0,0,0,218.44,186.18Zm-3.21,18.53a74,74,0,0,1-.44,9.27,10.33,10.33,0,0,1-1.55,4.6,5.59,5.59,0,0,1-3.24,2.07,28.14,28.14,0,0,1-6.82.64,27.79,27.79,0,0,1-6.84-.65,5.59,5.59,0,0,1-3.24-2.07,10.46,10.46,0,0,1-1.59-4.65,73.17,73.17,0,0,1-.44-9.21,77.8,77.8,0,0,1,.41-9.34,10.41,10.41,0,0,1,1.56-4.61,5.51,5.51,0,0,1,3.21-2.07,39,39,0,0,1,13.79,0,5.59,5.59,0,0,1,3.21,2.07,10.05,10.05,0,0,1,1.55,4.61A76.79,76.79,0,0,1,215.23,204.71Z"/><path class="cls-2" d="M261.47,182.15H230.14v23.19a41.47,41.47,0,0,1-.41,6,24,24,0,0,1-1.31,5.15,23.06,23.06,0,0,1-2.13,4.24h-3.14v16.29h6.56v-9.85H258v9.85h6.55V220.77h-3.09Zm-7,6.49v32.13H234.12c.32-.65.62-1.28.88-1.91a23.09,23.09,0,0,0,1.18-3.82,37.81,37.81,0,0,0,.65-4.49c.14-1.69.21-3.65.21-5.84V188.64Z"/><path class="cls-2" d="M317.59,182.15H286.26v23.19a41.54,41.54,0,0,1-.4,6,24.16,24.16,0,0,1-1.31,5.15,23.11,23.11,0,0,1-2.14,4.24h-3.13v16.29h6.55v-9.85h28.3v9.85h6.55V220.77h-3.09Zm-6.95,6.49v32.13H290.25c.32-.64.61-1.28.87-1.91A23.09,23.09,0,0,0,292.3,215a35.8,35.8,0,0,0,.66-4.49c.13-1.69.21-3.65.21-5.84V188.64Z"/><path class="cls-2" d="M328.4,214.09a17.19,17.19,0,0,1-.47,4.66,2.59,2.59,0,0,1-1.06,1.58,6,6,0,0,1-2.57.44h-2.25v6.44h4.14c3.33,0,5.73-1.23,7.17-3.64,1.34-2.26,2-5.53,2-10V188.7h18.51v38.51h6.95v-45H328.4Z"/><path class="cls-2" d="M369,185.41c-2.53,2.2-3.81,5.69-3.81,10.37a14.32,14.32,0,0,0,2.86,9.28,11.9,11.9,0,0,0,6.06,4l-10.35,18.12h8.33l9.56-17.11h11.52v17.11h7V182.15H380C375.17,182.15,371.46,183.24,369,185.41Zm4.73,5.05c.94-1.21,2.73-1.82,5.32-1.82h14.12v15.13H381.31c-3,0-5.37-.62-6.92-1.84a6.06,6.06,0,0,1-2.21-5.12C372.18,193.89,372.69,191.75,373.71,190.46Z"/><path class="cls-2" d="M502.4,182.15l-11.37,28-12.17-27.33-.29-.66H471L487.3,218a5,5,0,0,1-1.32,2.26,4.33,4.33,0,0,1-2.58.6h-3.91v6.38h5.58c4,0,7-2.49,9-7.37l15.62-37.69Z"/><polygon class="cls-2" points="569.96 182.15 561.28 182.15 546.74 200.85 544.26 200.85 544.26 182.15 537.24 182.15 537.24 200.85 534.71 200.85 520.24 182.15 511.51 182.15 528.46 204.03 508.24 227.21 518.04 227.21 534.69 207.29 537.24 207.29 537.24 227.21 544.26 227.21 544.26 207.29 546.76 207.29 563.41 227.21 573.22 227.21 553 204.03 569.96 182.15"/><path class="cls-2" d="M600.59,201a66.11,66.11,0,0,1-10.68.59,47.91,47.91,0,0,1-5.07-.21,7,7,0,0,1-2.76-.89,3.67,3.67,0,0,1-1.48-2,13.33,13.33,0,0,1-.57-4.39v-12h-6.95v11.12a30,30,0,0,0,.68,7.06,9.3,9.3,0,0,0,2.56,4.65,10.22,10.22,0,0,0,4.92,2.41,36,36,0,0,0,7.52.66,71.11,71.11,0,0,0,11.83-.72v19.88h7V182.15h-7Z"/><polygon class="cls-2" points="620.06 218.96 620.06 182.15 613.1 182.15 613.1 227.21 622.36 227.21 645.08 190.76 645.08 227.21 652.03 227.21 652.03 182.15 642.7 182.15 620.06 218.96"/><polygon class="cls-2" points="686.97 182.2 686.97 201.09 664.11 201.09 664.11 182.2 657.16 182.2 657.16 227.21 664.11 227.21 664.11 207.47 686.97 207.47 686.97 227.21 693.92 227.21 693.92 182.2 686.97 182.2"/><polygon class="cls-2" points="467.38 182.09 463.84 182.09 463.43 182.09 458.92 182.09 444.44 217.1 430.34 182.78 430.06 182.09 425.22 182.09 425.01 182.09 420.26 182.09 420.26 227.21 427.22 227.21 427.22 192.58 441.7 227.21 447.29 227.21 461.63 192.26 461.63 227.21 468.59 227.21 468.59 182.09 467.38 182.09"/><polygon class="cls-3" points="0 19.02 37.2 19.02 37.2 121.17 57.29 121.17 57.29 19.02 94.16 19.02 94.16 0.15 0 0.15 0 19.02"/><path class="cls-3" d="M164.45.15H106.76v121h19.93V75.63h34.87a30.92,30.92,0,0,1,10.86,1.59,9.68,9.68,0,0,1,5.24,4.53c1.29,2.34,1.94,5.69,1.94,10v29.46h20.08V88.67c0-12-4.26-18.5-9.78-21.94a19.58,19.58,0,0,0,3.77-2.81,21.79,21.79,0,0,0,6.41-11.59A84.07,84.07,0,0,0,201.35,37C201.28,24.28,198.14,14.83,192,9S176.69.15,164.45.15ZM126.69,18.87h37.76c4.12,0,7.44.7,9.88,2.08a11.17,11.17,0,0,1,4.95,6.1,36.84,36.84,0,0,1,1.84,12.75c0,5.13-.7,9-2.07,11.52A9.59,9.59,0,0,1,173.36,56c-3.09,1-7.52,1.56-13.17,1.56h-33.5Z"/><path class="cls-3" d="M294.73,83.49c0,8.21-1.08,12.18-2,14.08-1.09,2.25-3.2,3.75-6.46,4.58-4,1-10.8,1.53-20.07,1.53s-15.91-.52-19.92-1.53c-3.25-.83-5.36-2.33-6.44-4.58-.91-1.9-2-5.87-2-14.08V.15H217.92V83.82c0,8.66,1.05,15.44,3.2,20.71a24.75,24.75,0,0,0,10,12.28,36.8,36.8,0,0,0,14.59,4.78,176.22,176.22,0,0,0,20.36,1c11.82,0,20.64-.67,26.95-2.06a25.08,25.08,0,0,0,16.19-11.11c3.69-5.69,5.48-14.05,5.48-25.55V.15H294.73Z"/><polygon class="cls-3" points="333.46 121.17 413.65 121.17 413.65 102.45 353.4 102.45 353.4 68.52 411.2 68.52 411.2 50.1 353.4 50.1 353.4 18.72 413.95 18.72 413.95 0.15 333.46 0.15 333.46 121.17"/><path class="cls-3" d="M615.66.15l-44.15,121h21.43l9.12-23.38h52.28l8.53,23.38H684.2L639.12.15Zm-7.85,79.22,19.83-55.3,20,55.3Z"/><polygon class="cls-3" points="780.06 0.15 780.06 94.7 721.75 0.15 695.99 0.15 695.99 121.17 715.92 121.17 715.92 27.58 774.29 121.17 800 121.17 800 0.15 780.06 0.15"/><polygon class="cls-3" points="532.06 0 494.13 91.64 456.52 0 429.27 0 429.27 121.17 449.21 121.17 449.21 32.3 486.38 121.17 502.21 121.17 539.03 31.53 539.03 121.17 558.96 121.17 558.96 0 532.06 0"/></svg>