<svg id="Layer_1" data-name="Layer 1" xmlns="http://www.w3.org/2000/svg" viewBox="0 0 800 581.47"><defs><style>.cls-1{fill:#fff;}</style></defs><path class="cls-1" d="M400,0A127.82,127.82,0,1,1,272.18,127.82,127.82,127.82,0,0,1,400,0ZM382.62,240.55h35.49L506.49,87.46,488.75,56.73H312L294.23,87.46Z"/><path class="cls-1" d="M137.49,526.57l-11.37,28L114,527.23l-.29-.66h-7.58l16.31,35.82a4.88,4.88,0,0,1-1.33,2.26,4.27,4.27,0,0,1-2.57.6h-3.91v6.38h5.57c4,0,7-2.49,9-7.37l15.61-37.69Z"/><polygon class="cls-1" points="184.93 526.57 176.55 526.57 165 543.99 153.79 527.06 153.47 526.57 145.06 526.57 159.89 548.32 143.79 571.63 152.32 571.63 165 552.82 177.37 571.14 177.69 571.63 186.21 571.63 170.12 548.32 184.93 526.57"/><path class="cls-1" d="M218.44,530.6a11.35,11.35,0,0,0-5.89-3.55,37.38,37.38,0,0,0-9.32-.95,38,38,0,0,0-9.39.95,11.37,11.37,0,0,0-5.93,3.57,15.28,15.28,0,0,0-3,7,62.38,62.38,0,0,0-.84,11.49,63.39,63.39,0,0,0,.83,11.45,15,15,0,0,0,3,7,11.54,11.54,0,0,0,5.91,3.57,37.21,37.21,0,0,0,9.3,1,37.88,37.88,0,0,0,9.37-1,11.48,11.48,0,0,0,5.93-3.56,15.39,15.39,0,0,0,3-7,63.54,63.54,0,0,0,.83-11.45,65.11,65.11,0,0,0-.82-11.47A15.28,15.28,0,0,0,218.44,530.6Zm-3.21,18.52a74.1,74.1,0,0,1-.44,9.28,10.38,10.38,0,0,1-1.55,4.6,5.59,5.59,0,0,1-3.24,2.07,28.23,28.23,0,0,1-6.82.63,27.88,27.88,0,0,1-6.84-.64A5.59,5.59,0,0,1,193.1,563a10.46,10.46,0,0,1-1.59-4.65,73.24,73.24,0,0,1-.44-9.22,78,78,0,0,1,.41-9.34,10.36,10.36,0,0,1,1.56-4.6,5.51,5.51,0,0,1,3.21-2.07,39,39,0,0,1,13.79,0,5.59,5.59,0,0,1,3.21,2.07,10.05,10.05,0,0,1,1.55,4.61A76.72,76.72,0,0,1,215.23,549.12Z"/><path class="cls-1" d="M261.47,526.57H230.14v23.19a41.47,41.47,0,0,1-.41,6,23.75,23.75,0,0,1-1.31,5.14,22.83,22.83,0,0,1-2.13,4.25h-3.14v16.28h6.56v-9.84H258v9.84h6.55V565.19h-3.09Zm-7,6.49v32.13H234.12c.32-.65.62-1.28.88-1.92a22.52,22.52,0,0,0,1.18-3.82,37.63,37.63,0,0,0,.65-4.48c.14-1.69.21-3.65.21-5.85V533.06Z"/><path class="cls-1" d="M317.59,526.57H286.26v23.19a41.54,41.54,0,0,1-.4,6,24.07,24.07,0,0,1-1.31,5.14,22.88,22.88,0,0,1-2.14,4.25h-3.13v16.28h6.55v-9.84h28.3v9.84h6.55V565.19h-3.09Zm-6.95,6.49v32.13H290.25q.48-1,.87-1.92a22.52,22.52,0,0,0,1.18-3.82A35.63,35.63,0,0,0,293,555c.13-1.69.21-3.65.21-5.85V533.06Z"/><path class="cls-1" d="M328.4,558.51a17.19,17.19,0,0,1-.47,4.66,2.56,2.56,0,0,1-1.06,1.57,5.8,5.8,0,0,1-2.57.45h-2.25v6.44h4.14c3.33,0,5.73-1.23,7.17-3.64s2-5.53,2-10V533.12h18.51v38.51h6.95v-45H328.4Z"/><path class="cls-1" d="M369,529.83c-2.53,2.2-3.81,5.69-3.81,10.37a14.32,14.32,0,0,0,2.86,9.28,11.9,11.9,0,0,0,6.06,4l-10.35,18.12h8.33l9.56-17.11h11.52v17.11h7V526.57H380C375.17,526.57,371.46,527.66,369,529.83Zm4.73,5c.94-1.2,2.73-1.81,5.32-1.81h14.12v15.13H381.31c-3,0-5.37-.62-6.92-1.84a6.07,6.07,0,0,1-2.21-5.12C372.18,538.31,372.69,536.17,373.71,534.87Z"/><path class="cls-1" d="M502.4,526.57l-11.37,28-12.17-27.33-.29-.66H471l16.31,35.82a5,5,0,0,1-1.32,2.26,4.33,4.33,0,0,1-2.58.6h-3.91v6.38h5.58c4,0,7-2.49,9-7.37l15.62-37.69Z"/><polygon class="cls-1" points="569.96 526.57 561.28 526.57 546.74 545.27 544.26 545.27 544.26 526.57 537.24 526.57 537.24 545.27 534.71 545.27 520.24 526.57 511.51 526.57 528.46 548.45 508.24 571.63 518.04 571.63 534.69 551.71 537.24 551.71 537.24 571.63 544.26 571.63 544.26 551.71 546.76 551.71 563.41 571.63 573.22 571.63 553 548.45 569.96 526.57"/><path class="cls-1" d="M600.59,545.43a66.11,66.11,0,0,1-10.68.59,47.91,47.91,0,0,1-5.07-.21,7,7,0,0,1-2.76-.89,3.66,3.66,0,0,1-1.48-2,13.22,13.22,0,0,1-.57-4.38v-12h-6.95v11.11a30.13,30.13,0,0,0,.68,7.07,9.3,9.3,0,0,0,2.56,4.65,10.4,10.4,0,0,0,4.92,2.41,36.07,36.07,0,0,0,7.52.65,71.34,71.34,0,0,0,11.83-.71v19.88h7V526.57h-7Z"/><polygon class="cls-1" points="620.06 563.38 620.06 526.57 613.1 526.57 613.1 571.63 622.36 571.63 645.08 535.17 645.08 571.63 652.03 571.63 652.03 526.57 642.7 526.57 620.06 563.38"/><polygon class="cls-1" points="686.97 526.62 686.97 545.5 664.11 545.5 664.11 526.62 657.16 526.62 657.16 571.63 664.11 571.63 664.11 551.89 686.97 551.89 686.97 571.63 693.92 571.63 693.92 526.62 686.97 526.62"/><polygon class="cls-1" points="467.38 526.51 463.84 526.51 463.43 526.51 458.92 526.51 444.44 561.52 430.34 527.2 430.06 526.51 425.22 526.51 425.01 526.51 420.26 526.51 420.26 571.63 427.22 571.63 427.22 537 441.7 571.63 447.29 571.63 461.63 536.68 461.63 571.63 468.59 571.63 468.59 526.51 467.38 526.51"/><polygon class="cls-1" points="0 363.44 37.2 363.44 37.2 465.59 57.29 465.59 57.29 363.44 94.16 363.44 94.16 344.57 0 344.57 0 363.44"/><path class="cls-1" d="M164.45,344.57H106.76v121h19.93V420.05h34.87a31.18,31.18,0,0,1,10.86,1.58,9.76,9.76,0,0,1,5.24,4.53c1.29,2.35,1.94,5.7,1.94,10v29.46h20.08v-32.5c0-12-4.26-18.5-9.78-21.94a19.58,19.58,0,0,0,3.77-2.81,21.79,21.79,0,0,0,6.41-11.59,84.07,84.07,0,0,0,1.27-15.29c-.07-12.76-3.21-22.21-9.31-28.08S176.69,344.57,164.45,344.57Zm-37.76,18.72h37.76c4.12,0,7.44.7,9.88,2.08a11.17,11.17,0,0,1,4.95,6.1,36.84,36.84,0,0,1,1.84,12.75c0,5.13-.7,9-2.07,11.52a9.62,9.62,0,0,1-5.69,4.63c-3.09,1-7.52,1.56-13.17,1.56h-33.5Z"/><path class="cls-1" d="M294.73,427.91c0,8.2-1.08,12.18-2,14.08-1.09,2.25-3.2,3.74-6.46,4.58-4,1-10.8,1.53-20.07,1.53s-15.91-.52-19.92-1.53c-3.25-.84-5.36-2.33-6.44-4.58-.91-1.9-2-5.88-2-14.08V344.57H217.92v83.67c0,8.66,1.05,15.44,3.2,20.71a24.68,24.68,0,0,0,10,12.27A36.65,36.65,0,0,0,245.69,466a176.22,176.22,0,0,0,20.36.95c11.82,0,20.64-.67,26.95-2.07a25,25,0,0,0,16.19-11.11c3.69-5.68,5.48-14,5.48-25.54V344.57H294.73Z"/><polygon class="cls-1" points="333.46 465.59 413.65 465.59 413.65 446.87 353.4 446.87 353.4 412.94 411.2 412.94 411.2 394.52 353.4 394.52 353.4 363.13 413.95 363.13 413.95 344.57 333.46 344.57 333.46 465.59"/><path class="cls-1" d="M615.66,344.57l-44.15,121h21.43l9.12-23.38h52.28l8.53,23.38H684.2l-45.08-121Zm-7.85,79.22,19.83-55.3,20,55.3Z"/><polygon class="cls-1" points="780.06 344.57 780.06 439.12 721.75 344.57 695.99 344.57 695.99 465.59 715.92 465.59 715.92 372 774.29 465.59 800 465.59 800 344.57 780.06 344.57"/><polygon class="cls-1" points="532.06 344.42 494.13 436.06 456.52 344.42 429.27 344.42 429.27 465.59 449.21 465.59 449.21 376.72 486.38 465.59 502.21 465.59 539.03 375.95 539.03 465.59 558.96 465.59 558.96 344.42 532.06 344.42"/></svg>