<svg id="Layer_1" data-name="Layer 1" xmlns="http://www.w3.org/2000/svg" viewBox="0 0 800 215.46"><defs><style>.cls-1{fill:#fff;}</style></defs><path class="cls-1" d="M86,0A86,86,0,1,1,0,86,86,86,0,0,1,86,0ZM74.27,161.78H98.14l59.44-103L145.65,38.15H26.76L14.82,58.82Z"/><path class="cls-1" d="M242.59,175.64l-8.25,20.3-8.83-19.82-.2-.48h-5.5l11.83,26a3.68,3.68,0,0,1-1,1.64,3.18,3.18,0,0,1-1.87.43H226v4.63H230c2.9,0,5.11-1.81,6.54-5.35l11.32-27.33Z"/><polygon class="cls-1" points="277 175.64 270.92 175.64 262.54 188.27 254.41 176 254.18 175.64 248.08 175.64 258.84 191.42 247.16 208.32 253.34 208.32 262.54 194.68 271.51 207.97 271.75 208.32 277.92 208.32 266.25 191.42 277 175.64"/><path class="cls-1" d="M301.29,178.57A8.16,8.16,0,0,0,297,176a33.7,33.7,0,0,0-13.57,0,8.15,8.15,0,0,0-4.3,2.59,11,11,0,0,0-2.19,5.08,57.51,57.51,0,0,0,0,16.64,11.08,11.08,0,0,0,2.19,5.08,8.31,8.31,0,0,0,4.29,2.58,26.85,26.85,0,0,0,6.75.7,27.4,27.4,0,0,0,6.8-.7,8.26,8.26,0,0,0,4.29-2.58,11.19,11.19,0,0,0,2.18-5.08,46,46,0,0,0,.6-8.3,47.44,47.44,0,0,0-.59-8.32A11,11,0,0,0,301.29,178.57ZM299,192a53.85,53.85,0,0,1-.32,6.73,7.56,7.56,0,0,1-1.12,3.33,4.06,4.06,0,0,1-2.35,1.5,26.92,26.92,0,0,1-9.91,0,4,4,0,0,1-2.35-1.51,7.47,7.47,0,0,1-1.15-3.36,53.24,53.24,0,0,1-.32-6.69,54.94,54.94,0,0,1,.3-6.77,7.47,7.47,0,0,1,1.13-3.35,4,4,0,0,1,2.32-1.49,20.69,20.69,0,0,1,5-.46,21,21,0,0,1,5,.45,4.12,4.12,0,0,1,2.33,1.5,7.39,7.39,0,0,1,1.12,3.34A56.43,56.43,0,0,1,299,192Z"/><path class="cls-1" d="M332.5,175.64H309.78v16.82a30.94,30.94,0,0,1-.29,4.38,17.42,17.42,0,0,1-.95,3.73,16.77,16.77,0,0,1-1.55,3.08h-2.27v11.81h4.75v-7.14H330v7.14h4.75V203.65H332.5Zm-5,4.71v23.3H312.67c.23-.47.45-.93.63-1.39a16.65,16.65,0,0,0,.86-2.77,25.12,25.12,0,0,0,.47-3.25c.1-1.23.16-2.65.16-4.24V180.35Z"/><path class="cls-1" d="M373.21,175.64H350.48v16.82a29.53,29.53,0,0,1-.29,4.38,16.87,16.87,0,0,1-.95,3.73,16.16,16.16,0,0,1-1.55,3.08h-2.27v11.81h4.75v-7.14H370.7v7.14h4.75V203.65h-2.24Zm-5,4.71v23.3H353.38c.23-.46.44-.93.63-1.39a16.65,16.65,0,0,0,.86-2.77,27,27,0,0,0,.47-3.25c.1-1.23.15-2.65.15-4.24V180.35Z"/><path class="cls-1" d="M381,198.8a12.25,12.25,0,0,1-.34,3.38,1.89,1.89,0,0,1-.76,1.15,4.37,4.37,0,0,1-1.87.32h-1.63v4.67h3a5.62,5.62,0,0,0,5.21-2.64c1-1.64,1.44-4,1.44-7.25v-18h13.42v27.93h5.05V175.68H381Z"/><path class="cls-1" d="M410.47,178c-1.83,1.6-2.76,4.13-2.76,7.53a10.39,10.39,0,0,0,2.08,6.73,8.62,8.62,0,0,0,4.39,2.92l-7.5,13.14h6l6.93-12.41H428v12.41h5.05V175.64H418.47C415,175.64,412.27,176.43,410.47,178Zm3.43,3.66c.69-.87,2-1.31,3.86-1.31H428v11h-8.58a8.06,8.06,0,0,1-5-1.33,4.4,4.4,0,0,1-1.6-3.71A7.66,7.66,0,0,1,413.9,181.66Z"/><path class="cls-1" d="M507.24,175.64,499,195.94l-8.83-19.82-.2-.48h-5.5l11.83,26a3.68,3.68,0,0,1-1,1.64,3.18,3.18,0,0,1-1.87.43h-2.84v4.63h4.05c2.9,0,5.1-1.81,6.54-5.35l11.32-27.33Z"/><polygon class="cls-1" points="556.23 175.64 549.94 175.64 539.39 189.2 537.6 189.2 537.6 175.64 532.51 175.64 532.51 189.2 530.67 189.2 520.17 175.64 513.84 175.64 526.14 191.51 511.47 208.32 518.58 208.32 530.66 193.87 532.51 193.87 532.51 208.32 537.6 208.32 537.6 193.87 539.41 193.87 551.49 208.32 558.6 208.32 543.94 191.51 556.23 175.64"/><path class="cls-1" d="M578.45,189.32a48,48,0,0,1-7.75.43,32.13,32.13,0,0,1-3.67-.16,4.91,4.91,0,0,1-2-.64A2.71,2.71,0,0,1,564,187.5a9.53,9.53,0,0,1-.41-3.18v-8.68h-5v8.06a21.68,21.68,0,0,0,.5,5.13,6.8,6.8,0,0,0,1.86,3.37,7.35,7.35,0,0,0,3.57,1.74,25.51,25.51,0,0,0,5.45.48,51.39,51.39,0,0,0,8.58-.52v14.42h5V175.64h-5Z"/><polygon class="cls-1" points="592.57 202.34 592.57 175.64 587.52 175.64 587.52 208.32 594.24 208.32 610.72 181.88 610.72 208.32 615.76 208.32 615.76 175.64 608.99 175.64 592.57 202.34"/><polygon class="cls-1" points="641.09 175.68 641.09 189.37 624.52 189.37 624.52 175.68 619.48 175.68 619.48 208.32 624.52 208.32 624.52 194.01 641.09 194.01 641.09 208.32 646.14 208.32 646.14 175.68 641.09 175.68"/><polygon class="cls-1" points="481.84 175.6 479.27 175.6 478.98 175.6 475.7 175.6 465.2 200.99 454.98 176.1 454.78 175.6 451.26 175.6 451.11 175.6 447.66 175.6 447.66 208.32 452.71 208.32 452.71 183.2 463.21 208.32 467.27 208.32 477.67 182.97 477.67 208.32 482.72 208.32 482.72 175.6 481.84 175.6"/><polygon class="cls-1" points="219.81 57.33 246.79 57.33 246.79 131.42 261.35 131.42 261.35 57.33 288.1 57.33 288.1 43.65 219.81 43.65 219.81 57.33"/><path class="cls-1" d="M339.07,43.65H297.23v87.77h14.46v-33H337a22.44,22.44,0,0,1,7.88,1.15,7,7,0,0,1,3.8,3.28,15.22,15.22,0,0,1,1.41,7.23v21.37h14.57V107.85c0-8.69-3.1-13.42-7.1-15.92a14,14,0,0,0,2.73-2,15.69,15.69,0,0,0,4.65-8.4,60.58,60.58,0,0,0,.93-11.09c-.06-9.25-2.33-16.11-6.76-20.36S348,43.65,339.07,43.65ZM311.69,57.22h27.38a14.64,14.64,0,0,1,7.17,1.51,8.11,8.11,0,0,1,3.59,4.43,26.79,26.79,0,0,1,1.33,9.24c0,3.72-.5,6.54-1.5,8.36a7,7,0,0,1-4.12,3.36A31.7,31.7,0,0,1,336,85.25H311.69Z"/><path class="cls-1" d="M433.56,104.09c0,6-.79,8.83-1.45,10.21-.79,1.63-2.32,2.72-4.68,3.32-2.94.74-7.83,1.11-14.56,1.11s-11.54-.37-14.45-1.11c-2.35-.6-3.88-1.69-4.67-3.32-.66-1.38-1.44-4.26-1.44-10.21V43.65H377.85v60.68c0,6.28.76,11.19,2.32,15a17.93,17.93,0,0,0,7.24,8.9A26.54,26.54,0,0,0,398,131.72a127,127,0,0,0,14.77.69c8.57,0,15-.49,19.54-1.5A18.11,18.11,0,0,0,444,122.85c2.68-4.12,4-10.18,4-18.52V43.65H433.56Z"/><polygon class="cls-1" points="461.65 131.42 519.8 131.42 519.8 117.84 476.11 117.84 476.11 93.23 518.03 93.23 518.03 79.87 476.11 79.87 476.11 57.11 520.02 57.11 520.02 43.65 461.65 43.65 461.65 131.42"/><path class="cls-1" d="M666.31,43.65l-32,87.77h15.54l6.61-17h37.92l6.18,17H716l-32.7-87.77Zm-5.7,57.45L675,61l14.48,40.1Z"/><polygon class="cls-1" points="785.54 43.65 785.54 112.22 743.25 43.65 724.57 43.65 724.57 131.42 739.02 131.42 739.02 63.54 781.35 131.42 800 131.42 800 43.65 785.54 43.65"/><polygon class="cls-1" points="605.68 43.54 578.17 110 550.89 43.54 531.13 43.54 531.13 131.42 545.59 131.42 545.59 66.96 572.55 131.42 584.03 131.42 610.73 66.41 610.73 131.42 625.19 131.42 625.19 43.54 605.68 43.54"/></svg>