<svg id="Layer_1" data-name="Layer 1" xmlns="http://www.w3.org/2000/svg" viewBox="0 0 1920 1080"><path d="M822.59,438.16a44.77,44.77,0,1,1-44.77,44.77A44.76,44.76,0,0,1,822.59,438.16Zm-6.09,84.26h12.43l31-53.63L853.68,458H791.75l-6.21,10.76Z"/><path d="M730.63,622.61l-4,9.81-4.26-9.58-.11-.23h-2.65l5.71,12.55a1.69,1.69,0,0,1-.46.79,1.49,1.49,0,0,1-.9.21h-1.37v2.23h1.95c1.4,0,2.47-.87,3.16-2.58l5.47-13.2Z"/><polygon points="747.25 622.61 744.32 622.61 740.27 628.71 736.34 622.78 736.23 622.61 733.29 622.61 738.48 630.23 732.84 638.39 735.83 638.39 740.27 631.8 744.6 638.22 744.72 638.39 747.7 638.39 742.06 630.23 747.25 622.61"/><path d="M759,624a4,4,0,0,0-2.06-1.24,16.47,16.47,0,0,0-6.56,0A4,4,0,0,0,748.3,624a5.33,5.33,0,0,0-1.06,2.45,22.61,22.61,0,0,0-.29,4,21.54,21.54,0,0,0,.29,4,5.28,5.28,0,0,0,1,2.45,4,4,0,0,0,2.08,1.25,13,13,0,0,0,3.25.34,13.33,13.33,0,0,0,3.29-.34A4,4,0,0,0,759,637a5.32,5.32,0,0,0,1-2.46,21.54,21.54,0,0,0,.29-4,22.94,22.94,0,0,0-.28-4A5.41,5.41,0,0,0,759,624Zm-1.13,6.49a26.37,26.37,0,0,1-.15,3.25,3.74,3.74,0,0,1-.54,1.61,2,2,0,0,1-1.14.73,10.22,10.22,0,0,1-2.39.22,9.67,9.67,0,0,1-2.39-.23,2,2,0,0,1-1.14-.72,3.58,3.58,0,0,1-.55-1.63,23.93,23.93,0,0,1-.16-3.23,26.74,26.74,0,0,1,.15-3.27,3.57,3.57,0,0,1,.54-1.61,2,2,0,0,1,1.13-.73,13.37,13.37,0,0,1,4.83,0,2,2,0,0,1,1.12.72,3.66,3.66,0,0,1,.55,1.62A29.18,29.18,0,0,1,757.86,630.51Z"/><path d="M774.06,622.61h-11v8.12a15.29,15.29,0,0,1-.14,2.12,9,9,0,0,1-.46,1.8,8.32,8.32,0,0,1-.75,1.49h-1.1v5.7h2.3v-3.45h9.91v3.45h2.29v-5.7h-1.08Zm-2.43,2.28v11.25h-7.15c.12-.23.22-.45.31-.67a7.5,7.5,0,0,0,.41-1.34,11.83,11.83,0,0,0,.23-1.57c.05-.59.07-1.28.07-2v-5.62Z"/><path d="M793.72,622.61h-11v8.12a15.29,15.29,0,0,1-.14,2.12,8.64,8.64,0,0,1-.46,1.8,8.32,8.32,0,0,1-.75,1.49h-1.1v5.7h2.3v-3.45h9.91v3.45h2.3v-5.7h-1.09Zm-2.43,2.28v11.25h-7.15a6.68,6.68,0,0,0,.31-.67,7.5,7.5,0,0,0,.41-1.34,11.83,11.83,0,0,0,.23-1.57c0-.59.08-1.28.08-2v-5.62Z"/><path d="M797.51,633.8a5.88,5.88,0,0,1-.17,1.63.88.88,0,0,1-.37.55,2,2,0,0,1-.9.16h-.79v2.25h1.45a2.72,2.72,0,0,0,2.52-1.27,6.92,6.92,0,0,0,.7-3.5v-8.71h6.48v13.48h2.43V622.63H797.51Z"/><path d="M811.72,623.75a4.62,4.62,0,0,0-1.33,3.64,5,5,0,0,0,1,3.25,4.2,4.2,0,0,0,2.12,1.41l-3.62,6.34h2.92l3.34-6h4v6h2.44V622.61h-7A5.74,5.74,0,0,0,811.72,623.75Zm1.66,1.77a2.27,2.27,0,0,1,1.86-.63h5v5.29H816a3.86,3.86,0,0,1-2.42-.64,2.13,2.13,0,0,1-.78-1.79A3.62,3.62,0,0,1,813.38,625.52Z"/><path d="M858.46,622.61l-4,9.81-4.27-9.58-.1-.23h-2.65l5.71,12.55a1.89,1.89,0,0,1-.46.79,1.5,1.5,0,0,1-.91.21h-1.37v2.23h2c1.4,0,2.46-.87,3.16-2.58l5.47-13.2Z"/><polygon points="882.13 622.61 879.08 622.61 873.99 629.16 873.12 629.16 873.12 622.61 870.66 622.61 870.66 629.16 869.78 629.16 864.71 622.61 861.65 622.61 867.59 630.28 860.5 638.39 863.94 638.39 869.77 631.42 870.66 631.42 870.66 638.39 873.12 638.39 873.12 631.42 874 631.42 879.83 638.39 883.27 638.39 876.19 630.28 882.13 622.61"/><path d="M892.86,629.22a23.52,23.52,0,0,1-3.75.2,16.54,16.54,0,0,1-1.77-.07,2.36,2.36,0,0,1-1-.31,1.29,1.29,0,0,1-.52-.7,4.74,4.74,0,0,1-.2-1.54v-4.19h-2.43v3.89a10.42,10.42,0,0,0,.24,2.48,3.31,3.31,0,0,0,.89,1.63,3.65,3.65,0,0,0,1.73.84,12.63,12.63,0,0,0,2.63.23,24.8,24.8,0,0,0,4.15-.25v7h2.43V622.61h-2.43Z"/><polygon points="899.68 635.5 899.68 622.61 897.24 622.61 897.24 638.39 900.48 638.39 908.44 625.63 908.44 638.39 910.88 638.39 910.88 622.61 907.61 622.61 899.68 635.5"/><polygon points="923.11 622.63 923.11 629.24 915.11 629.24 915.11 622.63 912.67 622.63 912.67 638.39 915.11 638.39 915.11 631.48 923.11 631.48 923.11 638.39 925.55 638.39 925.55 622.63 923.11 622.63"/><polygon points="846.19 622.59 844.95 622.59 844.81 622.59 843.23 622.59 838.15 634.85 833.22 622.83 833.12 622.59 831.42 622.59 831.35 622.59 829.68 622.59 829.68 638.39 832.12 638.39 832.12 626.26 837.2 638.39 839.15 638.39 844.18 626.15 844.18 638.39 846.62 638.39 846.62 622.59 846.19 622.59"/><polygon points="682.47 565.47 695.5 565.47 695.5 601.25 702.54 601.25 702.54 565.47 715.46 565.47 715.46 558.86 682.47 558.86 682.47 565.47"/><path d="M740.08,558.86H719.87v42.39h7v-16h12.21a11,11,0,0,1,3.81.55,3.47,3.47,0,0,1,1.84,1.59,7.41,7.41,0,0,1,.67,3.49v10.32h7V589.87c0-4.2-1.49-6.49-3.43-7.69a6.7,6.7,0,0,0,1.32-1,7.58,7.58,0,0,0,2.25-4.06,28.43,28.43,0,0,0,.44-5.35c0-4.47-1.12-7.78-3.26-9.84S744.36,558.86,740.08,558.86Zm-13.23,6.55h13.23a7.11,7.11,0,0,1,3.46.73,3.91,3.91,0,0,1,1.73,2.14,12.84,12.84,0,0,1,.65,4.47,8.74,8.74,0,0,1-.73,4,3.39,3.39,0,0,1-2,1.63,15.4,15.4,0,0,1-4.62.54H726.85Z"/><path d="M785.72,588.05A11.91,11.91,0,0,1,785,593a3.21,3.21,0,0,1-2.27,1.61,32.84,32.84,0,0,1-7,.53,32.48,32.48,0,0,1-7-.53,3.19,3.19,0,0,1-2.25-1.61,11.91,11.91,0,0,1-.7-4.93V558.86h-7v29.31a19.22,19.22,0,0,0,1.12,7.25,8.61,8.61,0,0,0,3.5,4.3,12.85,12.85,0,0,0,5.11,1.68,61.86,61.86,0,0,0,7.13.33,46.83,46.83,0,0,0,9.44-.72,8.78,8.78,0,0,0,5.67-3.9c1.29-2,1.92-4.91,1.92-8.94V558.86h-7Z"/><polygon points="799.28 601.25 827.37 601.25 827.37 594.69 806.26 594.69 806.26 582.81 826.51 582.81 826.51 576.35 806.26 576.35 806.26 565.36 827.48 565.36 827.48 558.86 799.28 558.86 799.28 601.25"/><path d="M898.13,558.86l-15.46,42.39h7.51l3.19-8.19h18.31l3,8.19h7.47l-15.79-42.39Zm-2.75,27.75,7-19.37,7,19.37Z"/><polygon points="955.72 558.86 955.72 591.98 935.3 558.86 926.27 558.86 926.27 601.25 933.26 601.25 933.26 568.46 953.7 601.25 962.71 601.25 962.71 558.86 955.72 558.86"/><polygon points="868.85 558.8 855.56 590.9 842.39 558.8 832.84 558.8 832.84 601.25 839.83 601.25 839.83 570.12 852.85 601.25 858.39 601.25 871.29 569.85 871.29 601.25 878.27 601.25 878.27 558.8 868.85 558.8"/><path d="M1553.87,562.29l-4,9.8-4.26-9.57-.1-.23h-2.66l5.72,12.55a1.84,1.84,0,0,1-.47.79,1.54,1.54,0,0,1-.9.21h-1.37v2.23h2c1.41,0,2.47-.87,3.16-2.58l5.47-13.2Z"/><polygon points="1570.48 562.29 1567.55 562.29 1563.5 568.39 1559.58 562.46 1559.46 562.29 1556.52 562.29 1561.71 569.91 1556.07 578.07 1559.06 578.07 1563.5 571.48 1567.84 577.9 1567.95 578.07 1570.93 578.07 1565.3 569.91 1570.48 562.29"/><path d="M1582.22,563.7a4,4,0,0,0-2.06-1.25,13.63,13.63,0,0,0-3.26-.33,13.28,13.28,0,0,0-3.29.33,4,4,0,0,0-2.08,1.25,5.43,5.43,0,0,0-1.06,2.46,28,28,0,0,0,0,8,5.23,5.23,0,0,0,1.06,2.45,4,4,0,0,0,2.07,1.25,13.08,13.08,0,0,0,3.26.33,13.36,13.36,0,0,0,3.28-.33,4,4,0,0,0,2.08-1.25,5.49,5.49,0,0,0,1-2.45,27.94,27.94,0,0,0,0-8A5.21,5.21,0,0,0,1582.22,563.7Zm-1.12,6.49a24.26,24.26,0,0,1-.16,3.25,3.58,3.58,0,0,1-.54,1.61,2,2,0,0,1-1.13.72,12.58,12.58,0,0,1-4.79,0,1.89,1.89,0,0,1-1.13-.73,3.65,3.65,0,0,1-.56-1.62,25.84,25.84,0,0,1-.16-3.23,26.52,26.52,0,0,1,.15-3.27,3.66,3.66,0,0,1,.55-1.62,1.9,1.9,0,0,1,1.12-.72,10,10,0,0,1,2.43-.22,9.8,9.8,0,0,1,2.4.22,1.93,1.93,0,0,1,1.13.72,3.62,3.62,0,0,1,.54,1.61A26.59,26.59,0,0,1,1581.1,570.19Z"/><path d="M1597.3,562.29h-11v8.12a15.29,15.29,0,0,1-.14,2.12,8.64,8.64,0,0,1-.46,1.8,7.92,7.92,0,0,1-.75,1.48h-1.1v5.71h2.3v-3.45h9.91v3.45h2.3v-5.71h-1.08Zm-2.44,2.27v11.25h-7.14c.11-.22.21-.44.3-.67a8,8,0,0,0,.42-1.33,11.8,11.8,0,0,0,.22-1.58c0-.59.08-1.27.08-2v-5.63Z"/><path d="M1617,562.29h-11v8.12a15.29,15.29,0,0,1-.14,2.12,8.34,8.34,0,0,1-.46,1.8,7.36,7.36,0,0,1-.75,1.48h-1.1v5.71h2.3v-3.45h9.91v3.45h2.3v-5.71H1617Zm-2.44,2.27v11.25h-7.14c.11-.22.21-.44.3-.67a8,8,0,0,0,.42-1.33,13.6,13.6,0,0,0,.23-1.58c0-.59.07-1.27.07-2v-5.63Z"/><path d="M1620.74,573.47a6.53,6.53,0,0,1-.16,1.64.92.92,0,0,1-.37.55,2.12,2.12,0,0,1-.9.15h-.79v2.26H1620a2.71,2.71,0,0,0,2.51-1.27,7,7,0,0,0,.7-3.51v-8.71h6.48v13.49h2.44V562.3h-11.36Z"/><path d="M1635,563.43a4.6,4.6,0,0,0-1.33,3.63,5,5,0,0,0,1,3.25,4.12,4.12,0,0,0,2.13,1.41l-3.63,6.35H1636l3.35-6h4v6h2.44V562.29h-7A5.75,5.75,0,0,0,1635,563.43Zm1.66,1.77a2.25,2.25,0,0,1,1.87-.64h4.94v5.3h-4.14a3.94,3.94,0,0,1-2.43-.64,2.14,2.14,0,0,1-.77-1.8A3.68,3.68,0,0,1,1636.61,565.2Z"/><path d="M1681.69,562.29l-4,9.8-4.26-9.57-.1-.23h-2.66l5.71,12.55a1.76,1.76,0,0,1-.46.79,1.56,1.56,0,0,1-.9.21h-1.37v2.23h1.95c1.4,0,2.47-.87,3.16-2.58l5.47-13.2Z"/><polygon points="1705.36 562.29 1702.32 562.29 1697.22 568.84 1696.36 568.84 1696.36 562.29 1693.9 562.29 1693.9 568.84 1693.01 568.84 1687.94 562.29 1684.88 562.29 1690.82 569.95 1683.74 578.07 1687.17 578.07 1693 571.09 1693.9 571.09 1693.9 578.07 1696.36 578.07 1696.36 571.09 1697.23 571.09 1703.07 578.07 1706.5 578.07 1699.42 569.95 1705.36 562.29"/><path d="M1716.09,568.89a23.15,23.15,0,0,1-3.74.21,16.75,16.75,0,0,1-1.78-.07,2.41,2.41,0,0,1-1-.32,1.35,1.35,0,0,1-.52-.69,4.83,4.83,0,0,1-.19-1.54v-4.19h-2.44v3.89a10.48,10.48,0,0,0,.24,2.48,3.26,3.26,0,0,0,.9,1.62,3.49,3.49,0,0,0,1.72.85,12.63,12.63,0,0,0,2.63.23,24.8,24.8,0,0,0,4.15-.25v7h2.44V562.29h-2.44Z"/><polygon points="1722.91 575.18 1722.91 562.29 1720.47 562.29 1720.47 578.07 1723.71 578.07 1731.67 565.3 1731.67 578.07 1734.11 578.07 1734.11 562.29 1730.84 562.29 1722.91 575.18"/><polygon points="1746.35 562.3 1746.35 568.92 1738.34 568.92 1738.34 562.3 1735.9 562.3 1735.9 578.07 1738.34 578.07 1738.34 571.16 1746.35 571.16 1746.35 578.07 1748.78 578.07 1748.78 562.3 1746.35 562.3"/><polygon points="1669.42 562.27 1668.19 562.27 1668.04 562.27 1666.46 562.27 1661.39 574.53 1656.45 562.51 1656.35 562.27 1654.66 562.27 1654.58 562.27 1652.92 562.27 1652.92 578.07 1655.36 578.07 1655.36 565.94 1660.43 578.07 1662.39 578.07 1667.41 565.83 1667.41 578.07 1669.85 578.07 1669.85 562.27 1669.42 562.27"/><polygon points="1505.7 505.14 1518.74 505.14 1518.74 540.93 1525.77 540.93 1525.77 505.14 1538.69 505.14 1538.69 498.53 1505.7 498.53 1505.7 505.14"/><path d="M1563.31,498.53H1543.1v42.4h7V525h12.22a10.73,10.73,0,0,1,3.8.56,3.4,3.4,0,0,1,1.84,1.59,7.37,7.37,0,0,1,.68,3.49v10.32h7V529.54c0-4.19-1.49-6.48-3.42-7.69a7.42,7.42,0,0,0,1.32-1,7.64,7.64,0,0,0,2.24-4.06,29.3,29.3,0,0,0,.45-5.36c0-4.47-1.13-7.77-3.27-9.83S1567.6,498.53,1563.31,498.53Zm-13.23,6.56h13.23a7.09,7.09,0,0,1,3.46.73,3.89,3.89,0,0,1,1.74,2.14,13,13,0,0,1,.64,4.46,8.78,8.78,0,0,1-.72,4,3.39,3.39,0,0,1-2,1.62,15.28,15.28,0,0,1-4.61.55h-11.74Z"/><path d="M1609,527.73a12,12,0,0,1-.7,4.93,3.15,3.15,0,0,1-2.26,1.6,32.2,32.2,0,0,1-7,.54,31.52,31.52,0,0,1-7-.54,3.15,3.15,0,0,1-2.26-1.6,12,12,0,0,1-.7-4.93v-29.2h-7v29.31a19.48,19.48,0,0,0,1.12,7.26,8.71,8.71,0,0,0,3.5,4.3,12.79,12.79,0,0,0,5.11,1.67,61.52,61.52,0,0,0,7.13.34,46,46,0,0,0,9.44-.73,8.74,8.74,0,0,0,5.67-3.89c1.29-2,1.92-4.92,1.92-8.95V498.53h-7Z"/><polygon points="1622.52 540.93 1650.6 540.93 1650.6 534.37 1629.5 534.37 1629.5 522.48 1649.75 522.48 1649.75 516.03 1629.5 516.03 1629.5 505.04 1650.71 505.04 1650.71 498.53 1622.52 498.53 1622.52 540.93"/><path d="M1721.37,498.53l-15.47,42.4h7.51l3.19-8.19h18.32l3,8.19h7.48l-15.8-42.4Zm-2.75,27.75,6.94-19.37,7,19.37Z"/><polygon points="1778.96 498.53 1778.96 531.65 1758.53 498.53 1749.51 498.53 1749.51 540.93 1756.49 540.93 1756.49 508.14 1776.93 540.93 1785.94 540.93 1785.94 498.53 1778.96 498.53"/><polygon points="1692.08 498.48 1678.8 530.58 1665.62 498.48 1656.08 498.48 1656.08 540.93 1663.06 540.93 1663.06 509.8 1676.08 540.93 1681.63 540.93 1694.52 509.53 1694.52 540.93 1701.51 540.93 1701.51 498.48 1692.08 498.48"/><path d="M171.45,493.14a37.39,37.39,0,1,1-37.39,37.39A37.39,37.39,0,0,1,171.45,493.14Zm-5.09,70.37h10.39l25.85-44.78-5.19-9H145.7l-5.19,9Z"/><path d="M239.58,569.54,236,578.37l-3.84-8.62-.09-.21h-2.39l5.14,11.3a1.5,1.5,0,0,1-.42.71,1.35,1.35,0,0,1-.81.19h-1.23v2h1.76c1.26,0,2.22-.78,2.84-2.32l4.93-11.89Z"/><polygon points="254.54 569.54 251.9 569.54 248.25 575.03 244.72 569.69 244.62 569.54 241.96 569.54 246.64 576.4 241.56 583.75 244.25 583.75 248.25 577.82 252.16 583.6 252.26 583.75 254.94 583.75 249.87 576.4 254.54 569.54"/><path d="M265.11,570.81a3.53,3.53,0,0,0-1.86-1.12,11.7,11.7,0,0,0-2.94-.3,11.93,11.93,0,0,0-3,.3,3.51,3.51,0,0,0-1.87,1.13,4.75,4.75,0,0,0-.95,2.21,20.32,20.32,0,0,0-.26,3.62,19.37,19.37,0,0,0,.26,3.61,4.75,4.75,0,0,0,.95,2.21,3.64,3.64,0,0,0,1.86,1.13,11.75,11.75,0,0,0,2.94.3,12,12,0,0,0,3-.3,3.63,3.63,0,0,0,1.87-1.13,4.85,4.85,0,0,0,.94-2.21,20.35,20.35,0,0,0,.26-3.61,21.81,21.81,0,0,0-.25-3.62A4.84,4.84,0,0,0,265.11,570.81Zm-1,5.84a23.66,23.66,0,0,1-.14,2.93,3.33,3.33,0,0,1-.49,1.45,1.75,1.75,0,0,1-1,.65,8.53,8.53,0,0,1-2.15.2,8.61,8.61,0,0,1-2.16-.2,1.77,1.77,0,0,1-1-.65,3.25,3.25,0,0,1-.5-1.47,21.59,21.59,0,0,1-.14-2.91,24.14,24.14,0,0,1,.13-2.94,3.25,3.25,0,0,1,.49-1.46,1.77,1.77,0,0,1,1-.65,9.38,9.38,0,0,1,2.19-.19,9.1,9.1,0,0,1,2.16.19,1.77,1.77,0,0,1,1,.65,3.17,3.17,0,0,1,.48,1.46A23.5,23.5,0,0,1,264.1,576.65Z"/><path d="M278.68,569.54H268.8v7.31a12.56,12.56,0,0,1-.13,1.91,7.54,7.54,0,0,1-.41,1.62,7.29,7.29,0,0,1-.67,1.34h-1v5.14h2.06v-3.11h8.93v3.11h2.07v-5.14h-1Zm-2.19,2.05v10.13h-6.43q.15-.3.27-.6a7.81,7.81,0,0,0,.38-1.21,11.39,11.39,0,0,0,.2-1.41c0-.53.07-1.15.07-1.85v-5.06Z"/><path d="M296.39,569.54h-9.88v7.31a14,14,0,0,1-.13,1.91,7.85,7.85,0,0,1-.41,1.62,7.34,7.34,0,0,1-.68,1.34h-1v5.14h2.07v-3.11h8.93v3.11h2.06v-5.14h-1Zm-2.19,2.05v10.13h-6.44c.1-.2.2-.4.28-.6a6.86,6.86,0,0,0,.37-1.21,13.58,13.58,0,0,0,.21-1.41c0-.53.06-1.15.06-1.85v-5.06Z"/><path d="M299.8,579.61a5.31,5.31,0,0,1-.15,1.47.82.82,0,0,1-.33.5,1.9,1.9,0,0,1-.81.14h-.71v2h1.3a2.44,2.44,0,0,0,2.26-1.14,6.21,6.21,0,0,0,.63-3.16V571.6h5.84v12.15H310v-14.2H299.8Z"/><path d="M312.6,570.57a4.11,4.11,0,0,0-1.2,3.27,4.53,4.53,0,0,0,.9,2.93,3.79,3.79,0,0,0,1.91,1.27L311,583.75h2.62l3-5.4h3.63v5.4h2.2V569.54h-6.34A5.13,5.13,0,0,0,312.6,570.57Zm1.49,1.59a2,2,0,0,1,1.68-.57h4.45v4.77h-3.73a3.5,3.5,0,0,1-2.18-.58,1.9,1.9,0,0,1-.7-1.62A3.29,3.29,0,0,1,314.09,572.16Z"/><path d="M354.69,569.54l-3.59,8.83-3.84-8.62-.09-.21h-2.39l5.14,11.3a1.51,1.51,0,0,1-.41.71,1.41,1.41,0,0,1-.82.19h-1.23v2h1.76c1.26,0,2.22-.78,2.84-2.32L357,569.54Z"/><polygon points="376 569.54 373.26 569.54 368.67 575.44 367.89 575.44 367.89 569.54 365.68 569.54 365.68 575.44 364.88 575.44 360.31 569.54 357.56 569.54 362.91 576.44 356.53 583.75 359.62 583.75 364.87 577.47 365.68 577.47 365.68 583.75 367.89 583.75 367.89 577.47 368.68 577.47 373.93 583.75 377.03 583.75 370.65 576.44 376 569.54"/><path d="M385.66,575.49a21.76,21.76,0,0,1-3.37.18c-.67,0-1.21,0-1.6-.06a2.29,2.29,0,0,1-.87-.28,1.2,1.2,0,0,1-.47-.63,4.25,4.25,0,0,1-.17-1.39v-3.77H377V573a9,9,0,0,0,.22,2.23,2.89,2.89,0,0,0,.81,1.47,3.19,3.19,0,0,0,1.55.76,11,11,0,0,0,2.37.21,22.51,22.51,0,0,0,3.73-.23v6.27h2.2V569.54h-2.2Z"/><polygon points="391.8 581.15 391.8 569.54 389.61 569.54 389.61 583.75 392.53 583.75 399.7 572.25 399.7 583.75 401.89 583.75 401.89 569.54 398.94 569.54 391.8 581.15"/><polygon points="412.91 569.55 412.91 575.51 405.7 575.51 405.7 569.55 403.51 569.55 403.51 583.75 405.7 583.75 405.7 577.53 412.91 577.53 412.91 583.75 415.1 583.75 415.1 569.55 412.91 569.55"/><polygon points="343.64 569.52 342.52 569.52 342.39 569.52 340.97 569.52 336.4 580.56 331.96 569.74 331.87 569.52 330.34 569.52 330.27 569.52 328.77 569.52 328.77 583.75 330.97 583.75 330.97 572.83 335.54 583.75 337.3 583.75 341.83 572.73 341.83 583.75 344.02 583.75 344.02 569.52 343.64 569.52"/><polygon points="229.66 518.08 241.4 518.08 241.4 550.3 247.74 550.3 247.74 518.08 259.37 518.08 259.37 512.13 229.66 512.13 229.66 518.08"/><path d="M281.54,512.13h-18.2V550.3h6.29V535.94h11a9.83,9.83,0,0,1,3.43.5,3.06,3.06,0,0,1,1.65,1.43,6.7,6.7,0,0,1,.61,3.14v9.29h6.34V540.05c0-3.78-1.35-5.84-3.09-6.92a6.06,6.06,0,0,0,1.19-.89,6.86,6.86,0,0,0,2-3.65,26.05,26.05,0,0,0,.4-4.83c0-4-1-7-2.94-8.85S285.4,512.13,281.54,512.13ZM269.63,518h11.91a6.32,6.32,0,0,1,3.12.66,3.53,3.53,0,0,1,1.56,1.92,11.52,11.52,0,0,1,.58,4,7.94,7.94,0,0,1-.65,3.64,3,3,0,0,1-1.8,1.46,13.59,13.59,0,0,1-4.15.49H269.63Z"/><path d="M322.64,538.42a10.77,10.77,0,0,1-.63,4.44,2.84,2.84,0,0,1-2,1.44,29,29,0,0,1-6.33.49,28.62,28.62,0,0,1-6.28-.49,2.82,2.82,0,0,1-2-1.44,10.77,10.77,0,0,1-.63-4.44V512.13h-6.29v26.39a17.37,17.37,0,0,0,1,6.53,7.85,7.85,0,0,0,3.15,3.88,11.56,11.56,0,0,0,4.6,1.5,55.17,55.17,0,0,0,6.42.3,41.56,41.56,0,0,0,8.5-.65,7.87,7.87,0,0,0,5.11-3.5c1.16-1.79,1.73-4.43,1.73-8.06V512.13h-6.29Z"/><polygon points="334.86 550.3 360.15 550.3 360.15 544.4 341.15 544.4 341.15 533.69 359.38 533.69 359.38 527.88 341.15 527.88 341.15 517.98 360.25 517.98 360.25 512.13 334.86 512.13 334.86 550.3"/><path d="M423.88,512.13,410,550.3h6.76l2.88-7.37h16.49l2.69,7.37h6.73l-14.22-38.17Zm-2.48,25,6.26-17.45L434,537.12Z"/><polygon points="475.74 512.13 475.74 541.95 457.34 512.13 449.22 512.13 449.22 550.3 455.5 550.3 455.5 520.78 473.92 550.3 482.03 550.3 482.03 512.13 475.74 512.13"/><polygon points="397.5 512.08 385.54 540.99 373.68 512.08 365.08 512.08 365.08 550.3 371.37 550.3 371.37 522.27 383.09 550.3 388.09 550.3 399.7 522.03 399.7 550.3 405.99 550.3 405.99 512.08 397.5 512.08"/><path d="M1243.31,494.13A45.87,45.87,0,1,1,1197.43,540,45.87,45.87,0,0,1,1243.31,494.13Zm-6.24,86.33h12.73l31.73-54.94-6.37-11h-63.45l-6.37,11Z"/></svg>